<?xml version="1.0" encoding="utf-8"?>
<!-- Generator: Adobe Illustrator 17.0.0, SVG Export Plug-In . SVG Version: 6.00 Build 0)  -->
<!DOCTYPE svg PUBLIC "-//W3C//DTD SVG 1.0//EN" "http://www.w3.org/TR/2001/REC-SVG-20010904/DTD/svg10.dtd">
<svg version="1.0" id="iOS" xmlns="http://www.w3.org/2000/svg" xmlns:xlink="http://www.w3.org/1999/xlink" x="0px" y="0px"
	 width="677px" height="361px" viewBox="0 0 677 361" enable-background="new 0 0 677 361" xml:space="preserve">
<g id="_x3C_Grupo_x3E___x2F__BODY">
	
		<linearGradient id="base_x27_s_outline_1_" gradientUnits="userSpaceOnUse" x1="489.7755" y1="118.9358" x2="489.7755" y2="292.8694">
		<stop  offset="0" style="stop-color:#666666"/>
		<stop  offset="0.5" style="stop-color:#CCCCCC"/>
		<stop  offset="0.5897" style="stop-color:#C0C0C0"/>
		<stop  offset="0.75" style="stop-color:#A2A2A2"/>
		<stop  offset="0.9613" style="stop-color:#707070"/>
		<stop  offset="1" style="stop-color:#666666"/>
	</linearGradient>
	<path id="base_x27_s_outline" fill="url(#base_x27_s_outline_1_)" d="M595.031,292.869c-16.578,0-35.254-4.413-45.415-10.729
		l-1.364-0.841l0.417-1.55l6.779-24.688l0.747-2.711l2.424,1.423c8.29,4.893,22.721,10.116,38.354,10.116
		c17.139,0,27.366-7.519,27.366-20.118c0-11.003-7.421-17.798-27.379-25.079c-30.746-10.981-45.697-27.158-45.697-49.45
		c0-28.906,24.662-49.097,59.981-49.097c19.397,0,32.429,4.601,39.945,8.465l1.585,0.811l-0.499,1.706l-7.02,23.959l-0.737,2.508
		l-2.319-1.207c-6.586-3.422-17.424-7.501-31.672-7.501c-18.242,0-24.715,9.401-24.715,17.451c0,11.41,8.802,16.673,29.84,24.861
		c29.901,11.245,43.243,26.792,43.243,50.397C658.894,265.246,642.169,292.869,595.031,292.869L595.031,292.869z M454.445,292.869
		c-45.579,0-77.411-35.016-77.411-85.149c0-51.708,32.824-87.819,79.828-87.819c46.446,0,77.653,34.124,77.653,84.913
		C534.515,258.31,503.08,292.869,454.445,292.869L454.445,292.869z M455.896,148.16c-26.189,0-43.106,23.096-43.106,58.836
		c0,34.462,17.322,57.619,43.106,57.619c25.637,0,42.861-23.638,42.861-58.83C498.757,178.03,485.347,148.16,455.896,148.16
		L455.896,148.16z M356.413,290.207h-2.15h-29.767h-2.15v-2.149v-117.85v-2.15h2.15h29.767h2.15v2.15v117.85V290.207
		L356.413,290.207z M339.258,155.422c-10.605,0-18.601-7.789-18.601-18.122c0-10.643,7.921-18.364,18.845-18.364
		c10.811,0,18.562,7.529,18.849,18.307C358.351,147.803,350.32,155.422,339.258,155.422L339.258,155.422z"/>
	<linearGradient id="base_1_" gradientUnits="userSpaceOnUse" x1="489.7705" y1="290.7192" x2="489.7705" y2="121.0855">
		<stop  offset="0.05" style="stop-color:#CCCCCC"/>
		<stop  offset="0.0614" style="stop-color:#C4C4C4"/>
		<stop  offset="0.1294" style="stop-color:#9C9C9C"/>
		<stop  offset="0.2016" style="stop-color:#797979"/>
		<stop  offset="0.2777" style="stop-color:#5D5D5D"/>
		<stop  offset="0.3588" style="stop-color:#474747"/>
		<stop  offset="0.4476" style="stop-color:#373737"/>
		<stop  offset="0.5495" style="stop-color:#2E2E2E"/>
		<stop  offset="0.6946" style="stop-color:#2B2B2B"/>
	</linearGradient>
	<path id="base" fill="url(#base_1_)" d="M339.502,121.086c-9.92,0-16.702,7.017-16.702,16.211c0,8.712,6.537,15.971,16.458,15.971
		c10.403,0,16.94-7.26,16.94-15.971C355.957,128.103,349.661,121.086,339.502,121.086z M324.5,288.058h29.764V170.209H324.5V288.058
		z M456.862,122.053c-45.977,0-77.679,35.331-77.679,85.668c0,47.67,29.04,82.999,75.261,82.999c44.766,0,77.92-31.216,77.92-85.905
		C532.365,158.111,504.294,122.053,456.862,122.053z M455.893,266.766c-28.554,0-45.253-26.382-45.253-59.773
		c0-33.638,15.73-60.984,45.253-60.984c29.767,0,45.015,29.041,45.015,59.777C500.908,239.902,484.691,266.766,455.893,266.766z
		 M614.874,193.199c-21.775-8.47-31.212-14.278-31.212-26.862c0-9.679,7.985-19.6,26.861-19.6c15.244,0,26.619,4.598,32.667,7.743
		l7.02-23.958c-8.475-4.355-21.299-8.227-38.967-8.227c-35.568,0-57.835,20.087-57.835,46.947c0,23.471,17.185,37.751,44.288,47.427
		c20.567,7.503,28.795,14.764,28.795,27.108c0,13.306-10.648,22.261-29.523,22.261c-15.244,0-30.005-4.838-39.442-10.41
		l-6.775,24.685c8.954,5.569,26.864,10.406,44.281,10.406c41.866,0,61.71-22.744,61.71-49.124
		C656.741,218.124,643.19,203.848,614.874,193.199z"/>
</g>
<defs>
	<filter id="Adobe_OpacityMaskFilter" filterUnits="userSpaceOnUse" x="322.8" y="121.086" width="327.41" height="126.802">
		<feFlood  style="flood-color:white;flood-opacity:1" result="back"/>
		<feBlend  in="SourceGraphic" in2="back" mode="normal"/>
	</filter>
</defs>
<mask maskUnits="userSpaceOnUse" x="322.8" y="121.086" width="327.41" height="126.802" id="SHINING_1_">
	<g filter="url(#Adobe_OpacityMaskFilter)">
		<linearGradient id="SVGID_1_" gradientUnits="userSpaceOnUse" x1="601.8095" y1="194.1399" x2="601.8095" y2="122.2942">
			<stop  offset="0.2" style="stop-color:#FFFFFF"/>
			<stop  offset="1" style="stop-color:#000000"/>
		</linearGradient>
		<path fill="url(#SVGID_1_)" d="M611.244,122.294c-35.568,0-57.835,20.087-57.835,46.947c0,9.796,3.034,17.971,8.492,24.898
			c14.696-1.646,29.634-3.078,44.799-4.265c-15.968-6.847-23.037-12.663-23.037-23.538c0-9.679,7.985-19.6,26.861-19.6
			c15.244,0,26.619,4.598,32.667,7.743l7.02-23.958C641.735,126.166,628.912,122.294,611.244,122.294z"/>
		<linearGradient id="SVGID_2_" gradientUnits="userSpaceOnUse" x1="455.6582" y1="229.019" x2="455.6582" y2="122.0526">
			<stop  offset="0.2" style="stop-color:#FFFFFF"/>
			<stop  offset="1" style="stop-color:#000000"/>
		</linearGradient>
		<path fill="url(#SVGID_2_)" d="M456.862,122.053c-45.977,0-77.679,35.331-77.679,85.668c0,7.428,0.705,14.556,2.071,21.299
			c9.884-2.868,20.03-5.601,30.406-8.22c-0.669-4.423-1.021-9.039-1.021-13.806c0-33.638,15.73-60.984,45.253-60.984
			c28.701,0,43.895,26.994,44.946,56.476c10.276-1.669,20.721-3.215,31.294-4.65C529.461,154.568,501.896,122.053,456.862,122.053z"
			/>
		<g>
			<g>
				
					<linearGradient id="SVGID_3_" gradientUnits="userSpaceOnUse" x1="329.4991" y1="237.8877" x2="329.4991" y2="111.0855" gradientTransform="matrix(1 0 0 1 10 10)">
					<stop  offset="0.2" style="stop-color:#FFFFFF"/>
					<stop  offset="1" style="stop-color:#000000"/>
				</linearGradient>
				<path fill="url(#SVGID_3_)" d="M324.5,247.888c9.587-3.644,19.514-7.151,29.764-10.521v-67.159H324.5V247.888z M339.258,153.268
					c10.403,0,16.94-7.26,16.94-15.971c-0.241-9.194-6.537-16.211-16.696-16.211c-9.92,0-16.702,7.017-16.702,16.211
					C322.8,146.009,329.337,153.268,339.258,153.268z"/>
			</g>
		</g>
	</g>
</mask>
<path id="SHINING" opacity="0.8" mask="url(#SHINING_1_)" fill="#FFFFFF" d="M324.5,247.888c9.587-3.644,19.514-7.151,29.764-10.521
	v-67.158H324.5V247.888z M611.244,122.294c-35.568,0-57.835,20.087-57.835,46.947c0,9.796,3.034,17.971,8.492,24.898
	c14.696-1.646,29.634-3.078,44.799-4.265c-15.968-6.847-23.037-12.663-23.037-23.538c0-9.679,7.985-19.6,26.861-19.6
	c15.244,0,26.619,4.598,32.667,7.743l7.02-23.958C641.735,126.166,628.912,122.294,611.244,122.294z M456.862,122.053
	c-45.977,0-77.679,35.331-77.679,85.668c0,7.428,0.705,14.556,2.071,21.299c9.884-2.868,20.03-5.601,30.406-8.22
	c-0.669-4.423-1.021-9.039-1.021-13.806c0-33.638,15.73-60.984,45.253-60.984c28.701,0,43.895,26.994,44.946,56.476
	c10.276-1.669,20.721-3.215,31.294-4.65C529.461,154.568,501.896,122.053,456.862,122.053z M339.502,121.086
	c-9.92,0-16.702,7.017-16.702,16.211c0,8.712,6.537,15.971,16.458,15.971c10.403,0,16.94-7.26,16.94-15.971
	C355.957,128.103,349.661,121.086,339.502,121.086z"/>
<linearGradient id="SVGID_4_" gradientUnits="userSpaceOnUse" x1="151.0493" y1="48.7715" x2="151.0493" y2="768.2822">
	<stop  offset="0" style="stop-color:#666666"/>
	<stop  offset="0.5" style="stop-color:#CCCCCC"/>
	<stop  offset="0.5897" style="stop-color:#C0C0C0"/>
	<stop  offset="0.75" style="stop-color:#A2A2A2"/>
	<stop  offset="0.9613" style="stop-color:#707070"/>
	<stop  offset="1" style="stop-color:#666666"/>
</linearGradient>
<path fill="url(#SVGID_4_)" d="M101.889,344.875c-21.652,0-42.118-17.27-62.566-52.796C19.859,257.568,10,223.76,10,191.563
	c0-30.54,7.736-56.03,22.993-75.762c15.463-19.793,35.281-29.82,58.919-29.82c9.878,0,21.586,1.973,35.792,6.032
	c6.826,1.979,11.978,3.301,15.864,4.17l0.039-1.928c0.408-20.194,5.796-37.896,16.017-52.613
	c10.276-14.797,27.581-25.115,51.433-30.667L215.241,10l0.931,4.193c0.146,0.66,0.293,1.263,0.429,1.819
	c0.23,0.946,0.448,1.84,0.592,2.707l0.058,0.348v0.352c0,0.521,0.04,1.035,0.085,1.629c0.052,0.672,0.11,1.435,0.11,2.283
	c0,8.473-2.005,17.941-5.961,28.141c-4.125,10.315-10.563,19.878-19.15,28.465c-6.172,6.171-12.471,10.712-18.778,13.542
	c2.009-0.632,4.187-1.354,6.547-2.177c13.921-4.641,25.431-6.888,35.242-6.888c16.365,0,31.199,4.533,44.09,13.473
	c7.044,4.831,14.192,11.692,21.226,20.38l2.618,3.233l-3.176,2.688c-10.082,8.53-17.127,15.806-21.541,22.242
	c-7.947,11.458-11.97,24.267-11.97,38.088c0,15.21,4.284,29.069,12.734,41.191c8.381,12.025,18.023,19.768,28.661,23.013
	l4.109,1.254l-1.297,4.097c-5.243,16.567-13.513,33.383-24.577,49.979c-17.521,26.689-35.632,40.234-53.812,40.234
	c-6.977,0-16.125-2.065-28.791-6.499c-10.593-3.948-20.293-6.021-28.134-6.021c-7.366,0-16.172,2.066-26.173,6.141
	C118.276,342.527,109.037,344.875,101.889,344.875z"/>
<linearGradient id="SVGID_5_" gradientUnits="userSpaceOnUse" x1="150.5" y1="342.794" x2="150.5" y2="-52.6579">
	<stop  offset="0.05" style="stop-color:#CCCCCC"/>
	<stop  offset="0.0614" style="stop-color:#C4C4C4"/>
	<stop  offset="0.1294" style="stop-color:#9C9C9C"/>
	<stop  offset="0.2016" style="stop-color:#797979"/>
	<stop  offset="0.2777" style="stop-color:#5D5D5D"/>
	<stop  offset="0.3588" style="stop-color:#474747"/>
	<stop  offset="0.4476" style="stop-color:#373737"/>
	<stop  offset="0.5495" style="stop-color:#2E2E2E"/>
	<stop  offset="0.6946" style="stop-color:#2B2B2B"/>
</linearGradient>
<path fill="url(#SVGID_5_)" d="M262.687,301.696c-16.823,25.626-33.646,38.341-50.274,38.341c-6.651,0-15.649-2.151-27.386-6.26
	c-11.542-4.304-21.518-6.26-29.539-6.26c-7.825,0-17.214,2.151-27.777,6.455c-10.759,4.5-19.366,6.651-25.822,6.651
	c-20.148,0-39.515-17.019-58.881-50.665c-18.975-33.646-28.756-66.314-28.756-98.396c0-29.93,7.434-54.187,22.105-73.162
	c14.671-18.779,33.059-28.169,55.555-28.169c9.585,0,20.931,1.956,34.625,5.869c13.498,3.912,22.496,5.869,26.995,5.869
	c5.673,0,15.062-2.152,27.973-6.651c12.911-4.304,24.257-6.651,33.842-6.651c15.649,0,29.538,4.304,41.667,12.715
	c6.846,4.695,13.693,11.346,20.344,19.562c-10.172,8.607-17.606,16.236-22.301,23.083c-8.411,12.128-12.715,25.626-12.715,40.493
	c0,16.041,4.499,30.713,13.498,43.623c8.999,12.911,19.366,21.127,30.908,24.648C281.857,268.245,274.032,284.677,262.687,301.696z
	 M207.522,49.935c-3.912,9.781-9.976,18.779-18.192,26.996c-7.042,7.042-14.084,11.737-21.126,14.084
	c-4.5,1.37-11.15,2.543-20.344,3.326c0.391-19.366,5.477-36.189,15.258-50.274c9.781-14.084,26.212-23.669,48.904-28.951
	c0.391,1.761,0.782,3.13,0.978,4.304c0,1.369,0.196,2.543,0.196,3.912C213.195,31.352,211.239,40.35,207.522,49.935z"/>
<linearGradient id="SVGID_6_" gradientUnits="userSpaceOnUse" x1="171.8531" y1="226.558" x2="21.015" y2="-47.5258">
	<stop  offset="0.232" style="stop-color:#CCCCCC"/>
	<stop  offset="0.2419" style="stop-color:#CECECE;stop-opacity:0.987"/>
	<stop  offset="0.3889" style="stop-color:#E4E4E4;stop-opacity:0.7956"/>
	<stop  offset="0.55" style="stop-color:#F3F3F3;stop-opacity:0.5859"/>
	<stop  offset="0.7357" style="stop-color:#FCFCFC;stop-opacity:0.3442"/>
	<stop  offset="1" style="stop-color:#FFFFFF;stop-opacity:0"/>
</linearGradient>
<path opacity="0.8" fill="url(#SVGID_6_)" d="M246.287,130.702c6.547,0,13.023,0.303,19.425,0.863
	c3.372-3.369,7.252-6.903,11.646-10.621c-6.651-8.216-13.498-14.867-20.344-19.562c-12.128-8.412-26.017-12.715-41.667-12.715
	c-9.585,0-20.931,2.347-33.842,6.651c-12.911,4.5-22.3,6.651-27.973,6.651c-4.499,0-13.498-1.957-26.995-5.869
	c-13.693-3.913-25.039-5.869-34.625-5.869c-22.496,0-40.884,9.39-55.555,28.169c-14.671,18.975-22.105,43.231-22.105,73.162
	c0,29.007,7.998,58.494,23.557,88.75C67.155,193.333,149.406,130.702,246.287,130.702z"/>
<linearGradient id="SVGID_7_" gradientUnits="userSpaceOnUse" x1="162.2784" y1="342.794" x2="162.2784" y2="-52.6579">
	<stop  offset="0.05" style="stop-color:#CCCCCC"/>
	<stop  offset="0.0614" style="stop-color:#C4C4C4"/>
	<stop  offset="0.1294" style="stop-color:#9C9C9C"/>
	<stop  offset="0.2016" style="stop-color:#797979"/>
	<stop  offset="0.2777" style="stop-color:#5D5D5D"/>
	<stop  offset="0.3588" style="stop-color:#474747"/>
	<stop  offset="0.4476" style="stop-color:#373737"/>
	<stop  offset="0.5495" style="stop-color:#2E2E2E"/>
	<stop  offset="0.6946" style="stop-color:#2B2B2B"/>
</linearGradient>
<path fill="url(#SVGID_7_)" d="M101.889,340.624c6.456,0,15.062-2.151,25.822-6.651c10.563-4.304,19.953-6.455,27.777-6.455
	c8.021,0,17.997,1.956,29.539,6.26c11.737,4.108,20.735,6.26,27.386,6.26c16.627,0,33.451-12.715,50.274-38.341
	c11.346-17.019,19.17-33.451,24.062-48.904c-11.542-3.521-21.91-11.737-30.908-24.648c-8.999-12.91-13.498-27.582-13.498-43.623
	c0-14.867,4.304-28.364,12.715-40.493c2.667-3.889,6.22-8.032,10.655-12.462c-6.402-0.56-12.877-0.863-19.425-0.863
	c-96.881,0-179.133,62.631-208.479,149.612c1.649,3.206,3.381,6.421,5.199,9.645C62.374,323.605,81.74,340.624,101.889,340.624z"/>
</svg>
